<?xml version="1.0" encoding="utf-8"?>
<!-- Generator: Adobe Illustrator 13.0.2, SVG Export Plug-In  -->
<!DOCTYPE svg PUBLIC "-//W3C//DTD SVG 1.1//EN" "http://www.w3.org/Graphics/SVG/1.1/DTD/svg11.dtd" [
	<!ENTITY ns_flows "http://ns.adobe.com/Flows/1.0/">
]>
<svg version="1.1"
	 xmlns="http://www.w3.org/2000/svg" xmlns:xlink="http://www.w3.org/1999/xlink" xmlns:a="http://ns.adobe.com/AdobeSVGViewerExtensions/3.0/"
	 x="0px" y="0px" width="125px" height="15px" viewBox="-0.402 -0.209 125 15" enable-background="new -0.402 -0.209 125 15"
	 xml:space="preserve">
<defs>
</defs>
<path fill="#006B47" d="M43.263,2.503c1.096-0.693,2.835-0.578,3.981-0.071c-0.015,0.642-0.073,1.37,0,2.03l-0.356,0.04
	c-0.295-0.681-1.008-1.126-1.735-1.14c-0.556-0.021-1.04,0.201-1.354,0.666c-0.275,0.423-0.229,1.041,0.06,1.425
	c0.717,0.964,2.495,1.459,3.421,2.777c0.658,0.958,0.626,2.212,0.053,3.241c-0.671,1.201-2.261,1.625-3.4,1.503
	c-0.646-0.069-1.319-0.223-1.908-0.495c0.063-0.752,0.036-1.557,0.025-2.321l0.421-0.024c0.117,0.699,0.751,1.23,1.255,1.377
	c0.954,0.281,1.593-0.072,1.924-0.459c0.409-0.482,0.335-1.331,0.097-1.664c-0.577-0.803-1.663-1.295-2.436-1.844
	C41.108,5.968,41.791,3.487,43.263,2.503z"/>
<path fill="#006B47" d="M23.424,12.384c0.533,0.104,1.063-0.016,1.364-0.469c0.18-0.289,0.249-0.627,0.249-0.992V4.271
	c-0.004-0.677-0.063-1.402-0.569-1.842V2.149h2.837v0.275c-0.491,0.341-0.521,0.994-0.521,1.857c0-0.021,0.023,4.381,0.023,4.381
	c0,1.201,0.048,2.146,0.003,2.494c-0.109,0.857-0.693,1.621-1.515,1.897c-0.569,0.203-1.298,0.188-1.923,0.11L23.424,12.384z"/>
<path fill="#006B47" d="M32.804,2.149c-0.086,0.518,0.068,0.969,0.296,1.383l1.442,2.542c0.058,0.108,0.099,0.206,0.149,0.334
	c0.042-0.12,0.092-0.239,0.143-0.339c0.483-0.891,1.017-1.77,1.506-2.664c0.201-0.369,0.29-0.795,0.211-1.256
	c0,0,2.551,0.002,2.549,0c-0.003,0,0.013,0.274,0,0.28c-0.569,0.208-1.121,1.168-1.396,1.645L35.52,7.981l0.001,3.24
	c0.007,0.846,0.173,1.15,0.5,1.39v0.274h-2.845v-0.274c0.436-0.327,0.487-0.678,0.503-1.399l0.005-3.277l-2.517-4.456
	c-0.242-0.412-0.63-0.835-1.065-1.048V2.149H32.804z"/>
<path fill="#006B47" d="M102.399,2.151c0.108,0.398,0.671,1.124,0.956,1.5l4.465,5.826c0.225,0.291,0.375,0.568,0.375,0.568
	s-0.029-0.146-0.047-0.391c-0.019-0.232-0.025-0.555-0.028-0.895V4.829c0-1.137-0.036-2.008-0.571-2.377V2.159h2.64v0.293
	c-0.587,0.488-0.568,1.365-0.567,2.418v5.739c0.004,0.743,0.031,1.542,0.424,1.998v0.28h-2.099
	c-0.071-0.629-0.983-1.674-1.438-2.256l-3.86-5.047c-0.088-0.124-0.232-0.41-0.232-0.41s0.02,0.123,0.029,0.341
	c0.021,0.382,0.037,1.054,0.034,1.884v2.771c0.004,1.348,0.028,2.111,0.566,2.435v0.282c0,0-2.618,0.003-2.614,0
	c0.004-0.002-0.002-0.276,0-0.28c0.283-0.22,0.543-0.363,0.544-2.474V3.528c-0.306-0.412-0.673-0.956-1.18-1.095V2.151H102.399z"/>
<path fill="#006B47" d="M63.884,12.428c0.374-0.513,0.337-1.196,0.368-1.846V4.487c-0.004-0.806,0.018-1.641-0.467-2.056V2.149
	h6.327l-1.055,1.808c-0.681-0.544-1.552-0.605-3.033-0.616v3.33h3.483l-1.033,1.761c-0.658-0.575-1.582-0.589-2.455-0.604v3.827
	c2.588,0.018,3.238-0.211,4.305-0.852l0.176,0.099l-0.785,1.981c0,0-6.019,0.004-6.019,0c0-0.002,0-0.276,0-0.276L63.884,12.428z"/>
<path fill="#006B47" d="M51.744,12.605c0.419-0.231,0.559-0.76,0.56-2.409c0.001-1.555,0-5.486,0-5.486
	c-0.001-0.775,0.054-1.988-0.452-2.278v-0.28h2.702v0.273c-0.396,0.25-0.387,0.693-0.459,1.098c-0.031,0.485-0.041,1-0.041,1.523
	c0-0.002-0.001,1.66,0,1.662c0,0.061-0.004,0.136-0.005,0.196c0,0,0.055-0.091,0.118-0.167l2.521-3.144
	c0.309-0.454,0.774-0.839,0.691-1.442h2.817v0.273c-0.419,0.17-0.789,0.477-1.133,0.818c-0.17,0.166-0.353,0.332-0.494,0.518
	c-0.143,0.184-0.513,0.645-0.513,0.645l-1.604,1.957c-0.356,0.438-0.529,0.609-0.529,0.609s0.188,0.194,0.533,0.652l1.934,2.49
	c0.795,1.004,1.275,1.568,1.275,1.568c0.33,0.342,0.717,0.799,1.188,0.923v0.28h-3.075c0.057-0.557-0.264-0.966-0.532-1.39
	l-3.098-4.017c-0.057-0.072-0.096-0.16-0.096-0.16s0.004,0.061,0.004,0.184l0.008,2.74c0.01,1.353,0.08,2.078,0.576,2.362
	c0.005,0-0.004,0.282,0,0.28s-2.901,0-2.897,0C51.749,12.886,51.749,12.607,51.744,12.605z"/>
<path fill="#006B47" d="M114.495,12.605c0.418-0.233,0.559-0.76,0.562-2.411c0.001-1.553,0-5.486,0-5.486
	c-0.003-0.773,0.055-1.986-0.453-2.278v-0.28h2.703v0.275c-0.398,0.247-0.387,0.693-0.46,1.098c-0.03,0.485-0.039,1-0.04,1.521
	c0-0.002-0.003,1.66,0,1.664c0,0.061-0.007,0.136-0.007,0.196c0,0,0.055-0.095,0.12-0.167l2.52-3.144
	c0.312-0.456,0.777-0.84,0.694-1.444h2.816v0.275c-0.419,0.17-0.788,0.475-1.134,0.816c-0.171,0.168-0.35,0.333-0.494,0.518
	c-0.144,0.184-0.512,0.645-0.512,0.645l-1.606,1.959c-0.357,0.438-0.526,0.607-0.526,0.607s0.185,0.195,0.53,0.652l1.934,2.49
	c0.797,1.006,1.276,1.57,1.276,1.57c0.332,0.34,0.719,0.797,1.189,0.92v0.283h-3.076c0.059-0.559-0.265-0.966-0.531-1.39l-3.1-4.017
	c-0.055-0.072-0.094-0.162-0.094-0.162s0.004,0.061,0.004,0.186l0.008,2.738c0.01,1.353,0.08,2.08,0.574,2.364
	c0.006-0.003-0.002,0.282,0,0.28c0.003-0.002-2.901,0-2.897,0C114.501,12.886,114.501,12.605,114.495,12.605z"/>
<path fill="#006B47" d="M87.336,12.607c0.617-0.343,1.222-1.788,1.522-2.464c-0.001-0.002,3.588-8.085,3.588-8.085h0.337
	l3.533,8.017c0.684,1.537,0.972,2.264,1.5,2.53v0.28h-2.531c0.117-0.504-0.037-0.977-0.198-1.412l-0.753-1.775h-3.567
	c0,0-0.504,1.258-0.5,1.258c-0.295,0.697-0.487,1.173-0.391,1.93h-2.54C87.336,12.882,87.342,12.605,87.336,12.607z M92.244,5.864
	l-1.014,2.59h2.62L92.813,5.88c-0.125-0.313-0.293-0.813-0.293-0.813S92.358,5.554,92.244,5.864z"/>
<polygon fill="#006B47" points="10.715,0.585 14.332,4.192 7.11,4.204 "/>
<polygon fill="#006B47" points="5.021,0.009 10.127,0 5.028,5.116 "/>
<polygon fill="#006B47" points="0.586,3.628 4.192,0.01 4.204,7.232 "/>
<polygon fill="#006B47" points="0.009,9.323 0,4.216 5.116,9.315 "/>
<polygon fill="#006B47" points="3.627,13.757 0.01,10.149 7.233,10.138 "/>
<polygon fill="#006B47" points="9.323,14.333 4.215,14.342 9.315,9.224 "/>
<polygon fill="#006B47" points="13.757,10.715 10.149,14.332 10.138,7.109 "/>
<polygon fill="#006B47" points="14.333,5.021 14.342,10.126 9.225,5.028 "/>
<path fill="#006B47" d="M78.311,12.622c0.585-0.276,0.581-1.098,0.588-2.359V4.636c-0.02-1.33-0.018-1.875-0.437-2.204V2.153h2.741
	c1.209-0.002,2.691,0.227,3.328,1.65c0.327,0.735,0.231,1.569-0.125,2.182c-0.383,0.628-1.033,1.038-1.714,1.158
	c0.985,0.109,2.037,0.635,2.423,1.619c0.38,0.998,0.17,2.27-0.584,3.055c-0.849,0.852-1.879,1.068-3.394,1.07h-2.827
	C78.307,12.897,78.313,12.616,78.311,12.622z M80.649,11.792c0.946,0.063,1.927-0.072,2.471-0.936
	c0.331-0.551,0.382-1.387,0.099-1.98c-0.502-0.959-1.537-1.112-2.569-1.084V11.792z M80.649,6.724
	c0.671,0.016,1.363,0.01,1.851-0.576c0.527-0.638,0.553-1.689,0.149-2.234c-0.493-0.658-1.17-0.754-2-0.733
	C80.649,4.407,80.649,5.493,80.649,6.724z"/>
</svg>
